<svg xmlns="http://www.w3.org/2000/svg" viewBox="0 0 500 500"><g id="freepik--Screen--inject-111"><rect x="65.86" y="56.63" width="368.27" height="232.98" style="fill:#fff"></rect><path d="M434.14,289.61l-368.28.15h-.15v-.15l-.09-233v-.25h.24l368.28.15h.09v.1Zm0,0-.1-233,.1.09-368.28.15.25-.24-.09,233-.16-.16Z" style="fill:#263238"></path><rect x="65.86" y="56.63" width="368.27" height="8.96" style="fill:#263238"></rect><path d="M74.51,61.11A1.81,1.81,0,1,1,72.7,59.3,1.8,1.8,0,0,1,74.51,61.11Z" style="fill:#A0B0B0"></path><path d="M81.89,61.11a1.81,1.81,0,1,1-1.81-1.81A1.8,1.8,0,0,1,81.89,61.11Z" style="fill:#fff"></path><path d="M89.26,61.11a1.81,1.81,0,1,1-1.81-1.81A1.8,1.8,0,0,1,89.26,61.11Z" style="fill:#455a64"></path><rect x="139.29" y="178.34" width="38.06" height="49.91" style="fill:#ebebeb"></rect><rect x="185.13" y="178.34" width="38.06" height="49.91" style="fill:#ebebeb"></rect><rect x="230.97" y="178.34" width="38.06" height="49.91" style="fill:#ebebeb"></rect><rect x="276.81" y="178.34" width="38.06" height="49.91" style="fill:#ebebeb"></rect><rect x="322.65" y="178.34" width="38.06" height="49.91" style="fill:#ebebeb"></rect><path d="M163.82,200.73a9.09,9.09,0,0,1,2.72,6.55,9.24,9.24,0,0,1-2.72,6.52,9.09,9.09,0,0,1-6.52,2.72h-.07a9,9,0,0,1-6.48-2.72,2,2,0,0,1,0-3,2.11,2.11,0,0,1,3,0,4.83,4.83,0,0,0,3.57,1.49,4.89,4.89,0,0,0,3.54-1.49,5.05,5.05,0,0,0,1.49-3.54,5,5,0,0,0-5-5,4.92,4.92,0,0,0-3.57,1.46,2.11,2.11,0,0,1-3,0c-.15-.15-.27-.34-.41-.49s0-.11,0-.11a.3.3,0,0,0-.08-.19c0-.11,0-.18,0-.26s0,0,0-.07a1.67,1.67,0,0,1,0-.63l1.12-9.65a2.2,2.2,0,0,1,.93-1.49c.07,0,.11,0,.15-.08s.07,0,.11-.07a2,2,0,0,1,1-.23h11a2.11,2.11,0,1,1,0,4.21h-9.17l-.44,3.69a9.68,9.68,0,0,1,2.49-.33A9.09,9.09,0,0,1,163.82,200.73Z" style="fill:#c7c7c7"></path><path d="M209.65,200.69a9.13,9.13,0,0,1,2.72,6.52,9.25,9.25,0,0,1-15.8,6.56,2.11,2.11,0,0,1,3-3,5,5,0,0,0,3.54,1.45,5.17,5.17,0,0,0,3.58-1.45,5,5,0,0,0,1.49-3.58,4.88,4.88,0,0,0-1.49-3.54,5,5,0,0,0-3.54-1.49,1.82,1.82,0,0,1-1.53-.67s0,0,0,0a2.12,2.12,0,0,1-.07-3l3.8-3.87h-6a2.11,2.11,0,0,1,0-4.21h11a2.09,2.09,0,0,1,2.13,2.08,2.26,2.26,0,0,1-.26,1,2.9,2.9,0,0,1-.38.52L207,198.86A8.62,8.62,0,0,1,209.65,200.69Z" style="fill:#c7c7c7"></path><path d="M255.49,200.69a9.13,9.13,0,0,1,2.72,6.52,9.25,9.25,0,0,1-15.8,6.56,2.11,2.11,0,1,1,3-3,5,5,0,0,0,3.54,1.45,5.17,5.17,0,0,0,3.58-1.45,5,5,0,0,0,1.49-3.58,4.88,4.88,0,0,0-1.49-3.54,5,5,0,0,0-3.54-1.49,1.82,1.82,0,0,1-1.53-.67s0,0,0,0a2.1,2.1,0,0,1-.07-3l3.8-3.87h-6a2.11,2.11,0,0,1,0-4.21h11a2.09,2.09,0,0,1,2.13,2.08,2.26,2.26,0,0,1-.27,1,2.44,2.44,0,0,1-.37.52l-4.69,4.84A8.62,8.62,0,0,1,255.49,200.69Z" style="fill:#c7c7c7"></path><path d="M304.74,207.66a8.91,8.91,0,1,1-13.82-7.42,6,6,0,0,1-1.23-3.69,6.15,6.15,0,0,1,12.3,0,6,6,0,0,1-1.23,3.69A8.94,8.94,0,0,1,304.74,207.66Zm-4.06,0a4.85,4.85,0,0,0-4.8-4.85,4.83,4.83,0,1,0,0,9.65A4.81,4.81,0,0,0,300.68,207.66Zm-6.93-11.11a2.09,2.09,0,1,0,4.18,0,2.09,2.09,0,0,0-4.18,0Z" style="fill:#c7c7c7"></path><rect x="222.94" y="245.72" width="54.12" height="16.96" style="fill:#A0B0B0"></rect><path d="M234.47,255.51a.44.44,0,0,1,.62-.06,2.76,2.76,0,0,0,1.6.65,1.83,1.83,0,0,0,1-.31.78.78,0,0,0,.36-.61.5.5,0,0,0-.07-.27,1,1,0,0,0-.25-.25,3.4,3.4,0,0,0-1.15-.39h0a4.88,4.88,0,0,1-1.08-.33,1.84,1.84,0,0,1-.78-.65,1.35,1.35,0,0,1-.19-.69,1.53,1.53,0,0,1,.67-1.22,2.43,2.43,0,0,1,1.45-.45,3.37,3.37,0,0,1,1.83.67.43.43,0,0,1,.11.6.42.42,0,0,1-.59.13,2.41,2.41,0,0,0-1.35-.54,1.66,1.66,0,0,0-.94.28.67.67,0,0,0-.32.53.45.45,0,0,0,.06.24.8.8,0,0,0,.23.21,2.75,2.75,0,0,0,1,.37h0a5.27,5.27,0,0,1,1.16.35,2.06,2.06,0,0,1,.84.7,1.4,1.4,0,0,1,.2.71,1.64,1.64,0,0,1-.72,1.3,2.67,2.67,0,0,1-1.55.48,3.61,3.61,0,0,1-2.15-.84A.45.45,0,0,1,234.47,255.51Z" style="fill:#fff"></path><path d="M242.67,257a2.42,2.42,0,0,1-2.42-2.43v-3a.45.45,0,0,1,.46-.46.47.47,0,0,1,.47.46v3a1.5,1.5,0,1,0,3,0v-3a.47.47,0,0,1,.93,0v3A2.43,2.43,0,0,1,242.67,257Z" style="fill:#fff"></path><path d="M247.06,256.51v-4.95a.46.46,0,0,1,.46-.46h1.19a1.59,1.59,0,0,1,1.59,1.59,1.54,1.54,0,0,1-.32,1A1.79,1.79,0,0,1,249,257h-1.48a0,0,0,0,1,0,0h0A.47.47,0,0,1,247.06,256.51Zm.93-3.14h.72a.67.67,0,0,0,.66-.68.66.66,0,0,0-.66-.66H248Zm0,2.67h1a.87.87,0,0,0,0-1.74h-1Z" style="fill:#fff"></path><path d="M257.08,251.56v4.95a.47.47,0,0,1-.47.46.46.46,0,0,1-.46-.46V253l-1.21,1.67a.44.44,0,0,1-.37.2h0a.49.49,0,0,1-.39-.2L253,253v3.53a.47.47,0,0,1-.93,0v-4.95a.47.47,0,0,1,.46-.46h0a.45.45,0,0,1,.37.19l1.67,2.32,1.66-2.32a.49.49,0,0,1,.38-.19h0A.48.48,0,0,1,257.08,251.56Z" style="fill:#fff"></path><path d="M259.16,251.56a.45.45,0,0,1,.46-.46.47.47,0,0,1,.47.46v4.95a.47.47,0,0,1-.47.46.45.45,0,0,1-.46-.46Z" style="fill:#fff"></path><path d="M265.24,252h-1.33v4.48a.45.45,0,0,1-.46.46.46.46,0,0,1-.46-.46V252h-1.32a.47.47,0,0,1-.46-.47.45.45,0,0,1,.46-.46h3.57a.45.45,0,0,1,.46.46A.47.47,0,0,1,265.24,252Z" style="fill:#fff"></path><path d="M257.06,97.48v7.61H254.9V97.48a4.91,4.91,0,1,0-9.8,0v7.61h-2.16V97.48a7.07,7.07,0,1,1,14.12,0Z" style="fill:#ebebeb"></path><polygon points="242.94 99.45 245.1 99.54 245.1 105.09 242.94 105.09 242.94 99.45" style="fill:#c7c7c7"></polygon><polygon points="257.06 100.03 257.06 105.09 254.9 105.09 254.9 99.94 257.06 100.03" style="fill:#c7c7c7"></polygon><rect x="240.19" y="102.27" width="19.63" height="16.29" style="fill:#A0B0B0"></rect><path d="M250.83,110.31l.82,3.89h-3.49l.83-3.89a1.74,1.74,0,0,1,.92-3.22,1.74,1.74,0,0,1,.92,3.22Z" style="fill:#263238"></path><path d="M143.62,159.53a.22.22,0,0,1,.22-.22h1.81a1.83,1.83,0,0,1,0,3.65l-1.58,0v2.51a.22.22,0,0,1-.23.22.22.22,0,0,1-.22-.22Zm2,3a1.4,1.4,0,0,0,1.38-1.39,1.38,1.38,0,0,0-1.38-1.38h-1.58v2.77Z" style="fill:#263238"></path><path d="M148.92,159.53a.22.22,0,0,1,.21-.22.22.22,0,0,1,.23.22v6a.22.22,0,0,1-.23.22.22.22,0,0,1-.21-.22Z" style="fill:#263238"></path><path d="M151.22,163.48a2.17,2.17,0,1,1,4.33-.16h0v0a.21.21,0,0,1-.22.21h-3.67a1.75,1.75,0,0,0,1.73,1.71,1.69,1.69,0,0,0,1.45-.81.2.2,0,0,1,.29-.07.23.23,0,0,1,.07.31,2.13,2.13,0,0,1-1.81,1A2.2,2.2,0,0,1,151.22,163.48Zm.46-.35h3.4a1.73,1.73,0,0,0-1.69-1.46A1.76,1.76,0,0,0,151.68,163.13Z" style="fill:#263238"></path><path d="M160.86,161.45v4a.22.22,0,0,1-.44,0v-.66a2.07,2.07,0,0,1-1.68.88,2.24,2.24,0,0,1,0-4.48,2.07,2.07,0,0,1,1.68.88v-.66a.22.22,0,0,1,.44,0Zm-.44,2a1.68,1.68,0,1,0-1.68,1.8A1.75,1.75,0,0,0,160.42,163.47Z" style="fill:#263238"></path><path d="M162.45,164.78a.22.22,0,0,1,.31,0,2.4,2.4,0,0,0,1.37.52A1.37,1.37,0,0,0,165,165a.69.69,0,0,0,.34-.55.7.7,0,0,0-.32-.55,2.39,2.39,0,0,0-.95-.33h0a2.5,2.5,0,0,1-1-.34.94.94,0,0,1-.49-.81,1.13,1.13,0,0,1,.49-.88,1.94,1.94,0,0,1,1.1-.3,2.41,2.41,0,0,1,1.33.49.22.22,0,0,1,.06.31.21.21,0,0,1-.3.06,2,2,0,0,0-1.09-.45,1.36,1.36,0,0,0-.85.26.67.67,0,0,0-.29.51.53.53,0,0,0,.26.45,2.14,2.14,0,0,0,.91.31h0a3.11,3.11,0,0,1,1.09.37,1.12,1.12,0,0,1,.5.91,1.15,1.15,0,0,1-.51.91,1.89,1.89,0,0,1-1.12.35,2.66,2.66,0,0,1-1.65-.64A.21.21,0,0,1,162.45,164.78Z" style="fill:#263238"></path><path d="M166.94,163.48a2.17,2.17,0,1,1,4.33-.16h0v0a.21.21,0,0,1-.22.21h-3.67a1.75,1.75,0,0,0,1.74,1.71,1.68,1.68,0,0,0,1.44-.81.2.2,0,0,1,.29-.07.24.24,0,0,1,.08.31,2.16,2.16,0,0,1-1.81,1A2.2,2.2,0,0,1,166.94,163.48Zm.47-.35h3.39a1.71,1.71,0,0,0-3.39,0Z" style="fill:#263238"></path><path d="M175.25,163.48a2.17,2.17,0,1,1,4.33-.16h0v0a.21.21,0,0,1-.22.21h-3.67a1.75,1.75,0,0,0,1.73,1.71,1.69,1.69,0,0,0,1.45-.81.2.2,0,0,1,.29-.07.23.23,0,0,1,.07.31,2.13,2.13,0,0,1-1.81,1A2.2,2.2,0,0,1,175.25,163.48Zm.46-.35h3.4a1.73,1.73,0,0,0-1.69-1.46A1.76,1.76,0,0,0,175.71,163.13Z" style="fill:#263238"></path><path d="M184.33,163.06a1.38,1.38,0,0,0-1.38-1.38,1.4,1.4,0,0,0-1.39,1.38v2.47a.18.18,0,0,1,0,.1.19.19,0,0,1-.17.08h0a.23.23,0,0,1-.15-.12s0,0,0,0v-4.11a.22.22,0,0,1,.22-.22.21.21,0,0,1,.21.22v.43a1.84,1.84,0,0,1,1.39-.65,1.82,1.82,0,0,1,1.82,1.82v2.43a.22.22,0,0,1-.44,0Z" style="fill:#263238"></path><path d="M188.3,161.45a.24.24,0,0,1-.22.22h-.58v3.27a.35.35,0,0,0,.33.32.26.26,0,0,1,.23.23.25.25,0,0,1-.23.22.76.76,0,0,1-.78-.77v-3.27h-.56c-.22,0-.22-.11-.22-.22s0-.22.22-.22h.56v-1.66a.23.23,0,0,1,.45,0v1.66h.58A.24.24,0,0,1,188.3,161.45Z" style="fill:#263238"></path><path d="M189.71,163.48a2.17,2.17,0,1,1,4.33-.16h0v0a.21.21,0,0,1-.22.21h-3.67a1.75,1.75,0,0,0,1.73,1.71,1.69,1.69,0,0,0,1.45-.81.2.2,0,0,1,.29-.07.23.23,0,0,1,.07.31,2.13,2.13,0,0,1-1.81,1A2.2,2.2,0,0,1,189.71,163.48Zm.46-.35h3.4a1.73,1.73,0,0,0-1.69-1.46A1.76,1.76,0,0,0,190.17,163.13Z" style="fill:#263238"></path><path d="M195.4,161.46a.22.22,0,0,1,.23-.22.21.21,0,0,1,.21.22v1l.06-.11a2.18,2.18,0,0,1,1.8-1.1.22.22,0,0,1,.22.22.23.23,0,0,1-.22.22,1.62,1.62,0,0,0-1.3.73,4,4,0,0,0-.54,1,.15.15,0,0,0,0,.08v2a.21.21,0,0,1-.21.22.22.22,0,0,1-.23-.22Z" style="fill:#263238"></path><path d="M203.72,161.45a.24.24,0,0,1-.22.22h-.58v3.27a.35.35,0,0,0,.33.32.26.26,0,0,1,.23.23.25.25,0,0,1-.23.22.76.76,0,0,1-.78-.77v-3.27h-.56c-.22,0-.22-.11-.22-.22s0-.22.22-.22h.56v-1.66a.23.23,0,0,1,.45,0v1.66h.58A.24.24,0,0,1,203.72,161.45Z" style="fill:#263238"></path><path d="M208.92,163a1.42,1.42,0,0,0-2.84,0v2.52s0,0,0,0l0,0a.18.18,0,0,1-.14.11h-.06a.21.21,0,0,1-.17-.07l0-.07a.22.22,0,0,1,0-.08v-6a.22.22,0,0,1,.22-.22.22.22,0,0,1,.23.22v2.36a1.86,1.86,0,0,1,1.41-.66,1.79,1.79,0,0,1,1.88,1.77v2.49a.22.22,0,0,1-.23.22.22.22,0,0,1-.22-.22Z" style="fill:#263238"></path><path d="M210.91,163.48a2.17,2.17,0,0,1,4.34-.16h0v0a.21.21,0,0,1-.22.21h-3.68a1.77,1.77,0,0,0,1.74,1.71,1.68,1.68,0,0,0,1.44-.81.22.22,0,0,1,.3-.07.24.24,0,0,1,.07.31,2.14,2.14,0,0,1-1.81,1A2.2,2.2,0,0,1,210.91,163.48Zm.47-.35h3.39a1.73,1.73,0,0,0-1.68-1.46A1.75,1.75,0,0,0,211.38,163.13Z" style="fill:#263238"></path><path d="M222.45,159.22a3.25,3.25,0,1,1-3.09,3.25A3.16,3.16,0,0,1,222.45,159.22Zm0,6a2.79,2.79,0,1,0-2.64-2.79A2.71,2.71,0,0,0,222.45,165.26Z" style="fill:#263238"></path><path d="M228.56,159.76h-1.93a.23.23,0,0,1,0-.45h4.3a.22.22,0,0,1,.22.22.22.22,0,0,1-.22.23H229v5.73a.22.22,0,1,1-.44,0Z" style="fill:#263238"></path><path d="M232.83,159.53a.22.22,0,0,1,.22-.22h1.81a1.83,1.83,0,0,1,0,3.65l-1.58,0v2.51a.22.22,0,0,1-.23.22.22.22,0,0,1-.22-.22Zm2,3a1.4,1.4,0,0,0,1.38-1.39,1.38,1.38,0,0,0-1.38-1.38h-1.58v2.77Z" style="fill:#263238"></path><path d="M240.48,163.46a2.26,2.26,0,0,1,2.3-2.23,2.32,2.32,0,0,1,1.43.5.21.21,0,0,1,0,.3.22.22,0,0,1-.3,0,1.89,1.89,0,0,0-1.16-.4,1.81,1.81,0,1,0,0,3.61,1.89,1.89,0,0,0,1.16-.39.23.23,0,0,1,.3,0,.22.22,0,0,1-.05.32,2.32,2.32,0,0,1-1.41.47A2.26,2.26,0,0,1,240.48,163.46Z" style="fill:#263238"></path><path d="M247.79,161.23a2.24,2.24,0,1,1-2.12,2.24A2.19,2.19,0,0,1,247.79,161.23Zm0,4a1.81,1.81,0,1,0-1.68-1.8A1.75,1.75,0,0,0,247.79,165.27Z" style="fill:#263238"></path><path d="M255.18,164.84a2.14,2.14,0,0,1-1.72.87,2.24,2.24,0,0,1,0-4.48,2.14,2.14,0,0,1,1.72.88v-2.58a.22.22,0,0,1,.23-.22.22.22,0,0,1,.22.22v6a.22.22,0,0,1-.22.22.22.22,0,0,1-.23-.22Zm0-1.28v-.15a1.72,1.72,0,1,0-1.72,1.85A1.75,1.75,0,0,0,255.18,163.56Z" style="fill:#263238"></path><path d="M257.17,163.48a2.17,2.17,0,1,1,4.33-.16h0v0a.21.21,0,0,1-.22.21h-3.67a1.76,1.76,0,0,0,1.74,1.71,1.68,1.68,0,0,0,1.44-.81.21.21,0,0,1,.29-.07.24.24,0,0,1,.08.31,2.14,2.14,0,0,1-1.81,1A2.2,2.2,0,0,1,257.17,163.48Zm.47-.35H261a1.73,1.73,0,0,0-1.68-1.46A1.75,1.75,0,0,0,257.64,163.13Z" style="fill:#263238"></path><path d="M265.49,164.78a.22.22,0,0,1,.31,0,2.37,2.37,0,0,0,1.37.52A1.37,1.37,0,0,0,268,165a.69.69,0,0,0,.34-.55.7.7,0,0,0-.32-.55,2.39,2.39,0,0,0-1-.33h0a2.5,2.5,0,0,1-1-.34.94.94,0,0,1-.49-.81,1.13,1.13,0,0,1,.49-.88,1.93,1.93,0,0,1,1.09-.3,2.42,2.42,0,0,1,1.34.49.23.23,0,0,1,.06.31.21.21,0,0,1-.3.06,2,2,0,0,0-1.1-.45,1.39,1.39,0,0,0-.85.26.68.68,0,0,0-.28.51.54.54,0,0,0,.25.45,2.24,2.24,0,0,0,.92.31h0a3.19,3.19,0,0,1,1.09.37,1.12,1.12,0,0,1,.5.91,1.15,1.15,0,0,1-.51.91,1.89,1.89,0,0,1-1.12.35,2.66,2.66,0,0,1-1.65-.64A.2.2,0,0,1,265.49,164.78Z" style="fill:#263238"></path><path d="M270,163.48a2.17,2.17,0,1,1,4.33-.16h0v0a.21.21,0,0,1-.22.21h-3.67a1.75,1.75,0,0,0,1.73,1.71,1.69,1.69,0,0,0,1.45-.81.2.2,0,0,1,.29-.07.23.23,0,0,1,.07.31,2.13,2.13,0,0,1-1.81,1A2.2,2.2,0,0,1,270,163.48Zm.46-.35h3.39a1.71,1.71,0,0,0-1.68-1.46A1.76,1.76,0,0,0,270.44,163.13Z" style="fill:#263238"></path><path d="M279.06,163.06a1.38,1.38,0,0,0-1.38-1.38,1.4,1.4,0,0,0-1.39,1.38v2.47a.3.3,0,0,1,0,.1.19.19,0,0,1-.17.08H276a.23.23,0,0,1-.15-.12s0,0,0,0v-4.11a.22.22,0,1,1,.43,0v.43a1.82,1.82,0,0,1,3.21,1.17v2.43a.22.22,0,0,1-.44,0Z" style="fill:#263238"></path><path d="M283,161.45a.24.24,0,0,1-.22.22h-.58v3.27a.35.35,0,0,0,.33.32.26.26,0,0,1,.23.23.25.25,0,0,1-.23.22.75.75,0,0,1-.78-.77v-3.27h-.56c-.22,0-.22-.11-.22-.22s0-.22.22-.22h.56v-1.66a.24.24,0,0,1,.22-.22.25.25,0,0,1,.23.22v1.66h.58A.24.24,0,0,1,283,161.45Z" style="fill:#263238"></path><path d="M289.43,161.45a.24.24,0,0,1-.22.22h-.58v3.27a.35.35,0,0,0,.33.32.26.26,0,0,1,.23.23.25.25,0,0,1-.23.22.76.76,0,0,1-.79-.77v-3.27h-.55c-.22,0-.22-.11-.22-.22s0-.22.22-.22h.55v-1.66a.24.24,0,0,1,.22-.22.25.25,0,0,1,.24.22v1.66h.58A.24.24,0,0,1,289.43,161.45Z" style="fill:#263238"></path><path d="M293.29,161.23a2.24,2.24,0,1,1-2.12,2.24A2.19,2.19,0,0,1,293.29,161.23Zm0,4a1.81,1.81,0,0,0,0-3.61,1.81,1.81,0,0,0,0,3.61Z" style="fill:#263238"></path><path d="M299.46,161.44a.21.21,0,0,1,.21-.21.22.22,0,0,1,.23.21v2.44a1.37,1.37,0,0,0,1.37,1.38,1.39,1.39,0,0,0,1.39-1.38v-2.44a.17.17,0,0,1,0-.11s0,0,0,0h0s0-.05.08-.06h.1l.11.05a.18.18,0,0,1,.05.07.19.19,0,0,1,0,.09v3.92a2.11,2.11,0,0,1-2.13,2.1,2.18,2.18,0,0,1-.92-.21A.22.22,0,0,1,300,167a.23.23,0,0,1,.28-.11,1.66,1.66,0,0,0,.73.17,1.68,1.68,0,0,0,1.69-1.66v-.3a1.82,1.82,0,0,1-3.2-1.18Z" style="fill:#263238"></path><path d="M306.85,161.23a2.24,2.24,0,1,1-2.12,2.24A2.19,2.19,0,0,1,306.85,161.23Zm0,4a1.81,1.81,0,1,0-1.68-1.8A1.75,1.75,0,0,0,306.85,165.27Z" style="fill:#263238"></path><path d="M310.41,161.44a.22.22,0,0,1,.44,0v2.44a1.38,1.38,0,1,0,2.76,0v-2.44a.23.23,0,0,1,.22-.22.22.22,0,0,1,.23.22v2.44a1.83,1.83,0,1,1-3.65,0Z" style="fill:#263238"></path><path d="M316.11,161.46a.22.22,0,0,1,.23-.22.21.21,0,0,1,.21.22v1a.3.3,0,0,1,.06-.11,2.16,2.16,0,0,1,1.79-1.1.22.22,0,0,1,.22.22.22.22,0,0,1-.22.22,1.63,1.63,0,0,0-1.3.73,4.31,4.31,0,0,0-.54,1,.28.28,0,0,0,0,.08v2a.21.21,0,0,1-.21.22.22.22,0,0,1-.23-.22Z" style="fill:#263238"></path><path d="M326.06,163.06a1.38,1.38,0,0,0-1.38-1.38,1.4,1.4,0,0,0-1.39,1.38v2.47a.3.3,0,0,1,0,.1.19.19,0,0,1-.17.08H323a.23.23,0,0,1-.15-.12s0,0,0,0v-4.11a.22.22,0,1,1,.43,0v.43a1.82,1.82,0,0,1,3.21,1.17v2.43a.22.22,0,0,1-.44,0Z" style="fill:#263238"></path><path d="M328.37,161.44a.22.22,0,0,1,.44,0v2.44a1.38,1.38,0,1,0,2.76,0v-2.44a.23.23,0,0,1,.22-.22.22.22,0,0,1,.23.22v2.44a1.83,1.83,0,1,1-3.65,0Z" style="fill:#263238"></path><path d="M340.48,163.06a1.41,1.41,0,0,0-1.39-1.39,1.39,1.39,0,0,0-1.38,1.39v2.51a.32.32,0,0,1-.11.12l-.11,0h-.07l-.05,0,0,0,0,0v0s0,0,0,0h0a0,0,0,0,0,0,0v-2.49a1.38,1.38,0,1,0-2.76,0v2.44a.21.21,0,0,1-.1.18l-.06,0h-.09a.23.23,0,0,1-.18-.16v-4.1a.21.21,0,0,1,.21-.21.21.21,0,0,1,.22.21v.43a1.8,1.8,0,0,1,1.38-.64,1.83,1.83,0,0,1,1.6.95,1.86,1.86,0,0,1,1.61-.95,1.82,1.82,0,0,1,1.81,1.82v2.44a.21.21,0,0,1-.42,0Z" style="fill:#263238"></path><path d="M342.76,163.57v-4a.22.22,0,0,1,.22-.22.22.22,0,0,1,.23.22v2.58a2.13,2.13,0,0,1,1.72-.88,2.24,2.24,0,0,1,0,4.48,2.12,2.12,0,0,1-1.72-.87v.65a.22.22,0,0,1-.23.22.22.22,0,0,1-.22-.22Zm.45-.09a1.77,1.77,0,1,0,0-.07Z" style="fill:#263238"></path><path d="M348.47,163.48a2.17,2.17,0,0,1,4.34-.16h0v0a.22.22,0,0,1-.22.21h-3.68a1.76,1.76,0,0,0,1.74,1.71,1.68,1.68,0,0,0,1.44-.81.21.21,0,0,1,.29-.07.23.23,0,0,1,.08.31,2.14,2.14,0,0,1-1.81,1A2.2,2.2,0,0,1,348.47,163.48Zm.47-.35h3.39a1.73,1.73,0,0,0-1.68-1.46A1.75,1.75,0,0,0,348.94,163.13Z" style="fill:#263238"></path><path d="M354.17,161.46a.22.22,0,1,1,.44,0v1a.3.3,0,0,1,.06-.11,2.16,2.16,0,0,1,1.79-1.1.22.22,0,0,1,.22.22.22.22,0,0,1-.22.22,1.63,1.63,0,0,0-1.3.73,4.31,4.31,0,0,0-.54,1,.28.28,0,0,0,0,.08v2a.22.22,0,1,1-.44,0Z" style="fill:#263238"></path><path d="M205.18,141.44l-.13-.09s0,0,0,0a.44.44,0,0,1-.09-.11h0a.42.42,0,0,0-.09-.14l-4.32-10.31a1,1,0,0,1,1.78-.75l3.44,8.18,3.45-8.18a1,1,0,0,1,1.27-.51,1,1,0,0,1,.53,1.26L206.63,141a.7.7,0,0,1-.08.14h0s-.07.07-.09.11,0,0,0,0a.81.81,0,0,1-.1.09l0,0a.85.85,0,0,1-.14.09h0a.42.42,0,0,0-.15,0h0a.58.58,0,0,1-.18,0,.5.5,0,0,1-.17,0h0a.33.33,0,0,0-.14,0h0l-.15-.11Z" style="fill:#263238"></path><path d="M212.35,137.2a4.37,4.37,0,0,1,4.31-4.41,4.22,4.22,0,0,1,4.25,4.1V137a.39.39,0,0,1,0,.15.84.84,0,0,1-.91.71h-5.62A2.39,2.39,0,0,0,215,139a2.74,2.74,0,0,0,1.7.79,2.93,2.93,0,0,0,1.83-.44,1,1,0,0,1,1.33-.05.8.8,0,0,1,0,1.14,4.45,4.45,0,0,1-3.16,1.17A4.39,4.39,0,0,1,212.35,137.2Zm1.92-.86h5a2.88,2.88,0,0,0-2.61-1.87A2.49,2.49,0,0,0,214.27,136.34Z" style="fill:#263238"></path><path d="M228.79,133.73a.94.94,0,0,1-.94.93,1.7,1.7,0,0,0-1.06.34,2.64,2.64,0,0,0-.81.85,5.43,5.43,0,0,0-.72,1.48v3.35a1,1,0,0,1-1,.94,1,1,0,0,1-.94-.94v-7a.93.93,0,0,1,.94-.92,1,1,0,0,1,1,.92v.12a2.44,2.44,0,0,1,.37-.35,3.83,3.83,0,0,1,2.22-.69A.92.92,0,0,1,228.79,133.73Z" style="fill:#263238"></path><path d="M233,130.59a1,1,0,0,1-.95,1,1,1,0,0,1-1-1v-.38a1,1,0,0,1,1-1,.94.94,0,0,1,.95,1Zm0,3.19v6.88a1,1,0,0,1-.95,1,1,1,0,0,1-1-1v-6.88a1,1,0,0,1,1-1A.94.94,0,0,1,233,133.78Z" style="fill:#263238"></path><path d="M239,132.21v.25h.53a1,1,0,0,1,1,1,1,1,0,0,1-1,1H239v6.23a1,1,0,0,1-1.94,0V134.4h-.46a1,1,0,0,1-1-1,1,1,0,0,1,1-1H237v-.25a3.6,3.6,0,0,1,.34-1.73,2.09,2.09,0,0,1,1.27-1.1,3.72,3.72,0,0,1,1.06-.14,1,1,0,0,1,0,2,1.13,1.13,0,0,0-.46.06.16.16,0,0,0-.11.05S239,131.56,239,132.21Z" style="fill:#263238"></path><path d="M244.38,130.59a1,1,0,0,1-.95,1,1,1,0,0,1-1-1v-.38a1,1,0,0,1,1-1,.94.94,0,0,1,.95,1Zm0,3.19v6.88a.94.94,0,0,1-.95,1,1,1,0,0,1-1-1v-6.88a.94.94,0,0,1,1-1A.93.93,0,0,1,244.38,133.78Z" style="fill:#263238"></path><path d="M246.8,137.22a4.5,4.5,0,0,1,4.49-4.43,4.63,4.63,0,0,1,2.8,1,1,1,0,0,1,.2,1.31,1,1,0,0,1-1.33.18,2.76,2.76,0,0,0-1.67-.57,2.54,2.54,0,1,0,0,5.07,2.8,2.8,0,0,0,1.67-.57.94.94,0,1,1,1.13,1.5,4.8,4.8,0,0,1-2.8.94A4.48,4.48,0,0,1,246.8,137.22Z" style="fill:#263238"></path><path d="M265,137.22v3.46a.94.94,0,0,1-.93.94,1,1,0,0,1-.92-.76,4,4,0,0,1-2.35.76,4.12,4.12,0,0,1-3-1.29,4.52,4.52,0,0,1-1.2-3.11,4.42,4.42,0,0,1,1.2-3.1,4,4,0,0,1,5.35-.55,1,1,0,0,1,.92-.78,1,1,0,0,1,.93,1Zm-1.87,0a2.59,2.59,0,0,0-.69-1.82,2.19,2.19,0,0,0-1.64-.72,2.16,2.16,0,0,0-1.64.72,2.62,2.62,0,0,0-.67,1.82,2.66,2.66,0,0,0,.67,1.82,2.24,2.24,0,0,0,1.64.69,2.27,2.27,0,0,0,1.64-.69A2.63,2.63,0,0,0,263.1,137.22Z" style="fill:#263238"></path><path d="M272.41,133.76a1,1,0,0,1-1,1H271v4.93a1,1,0,0,1,1,1,1,1,0,0,1-1,1,2,2,0,0,1-2-2v-4.93h-.51a1,1,0,0,1,0-1.94H269v-2.56a1,1,0,0,1,1-1,1,1,0,0,1,1,1v2.56h.44A1,1,0,0,1,272.41,133.76Z" style="fill:#263238"></path><path d="M277.42,130.59a1,1,0,0,1-.95,1,1,1,0,0,1-1-1v-.38a1,1,0,0,1,1-1,.94.94,0,0,1,.95,1Zm0,3.19v6.88a.94.94,0,0,1-.95,1,1,1,0,0,1-1-1v-6.88a.94.94,0,0,1,1-1A.93.93,0,0,1,277.42,133.78Z" style="fill:#263238"></path><path d="M281.27,140.33a4.45,4.45,0,0,1-1.21-3.11,4.6,4.6,0,0,1,1.21-3.09,4.13,4.13,0,0,1,3-1.34,3.91,3.91,0,0,1,2.95,1.34,4.43,4.43,0,0,1,1.23,3.09,4.29,4.29,0,0,1-1.23,3.11,3.91,3.91,0,0,1-2.95,1.34A4.13,4.13,0,0,1,281.27,140.33Zm.71-3.11a2.82,2.82,0,0,0,.64,1.87,2.36,2.36,0,0,0,1.69.66,2.28,2.28,0,0,0,1.62-.66,2.66,2.66,0,0,0,.69-1.87,2.6,2.6,0,0,0-.69-1.83,2.47,2.47,0,0,0-1.62-.67,2.54,2.54,0,0,0-1.69.67A2.75,2.75,0,0,0,282,137.22Z" style="fill:#263238"></path><path d="M298.86,136.46v4.22a.93.93,0,0,1-.92.94,1,1,0,0,1-.93-.94v-4.22a1.81,1.81,0,0,0-1.84-1.78,1.75,1.75,0,0,0-1.76,1.78v4.22a.33.33,0,0,1,0,.18,1,1,0,0,1-.93.76.94.94,0,0,1-.94-.94v-7a.94.94,0,0,1,1.8-.39,3.48,3.48,0,0,1,1.87-.55A3.7,3.7,0,0,1,298.86,136.46Z" style="fill:#263238"></path></g><g id="freepik--Shield--inject-111"><path d="M479.23,77.25s-6.57,52.61-17.37,64.44c-13,14.2-22.37,12.12-27.6,19.45a0,0,0,0,0,0,0c-5.24-7.34-14.64-5.25-27.62-19.46-10.8-11.83-17.35-64.44-17.35-64.44,28.45-13.81,45-29.29,45-29.29h0C434.77,48.45,451.22,63.66,479.23,77.25Z" style="fill:#A0B0B0"></path><path d="M434.26,48V161.14a0,0,0,0,0,0,0c-5.24-7.34-14.64-5.25-27.62-19.46-10.8-11.83-17.35-64.44-17.35-64.44,28.45-13.81,45-29.29,45-29.29Z" style="opacity:0.1"></path><path d="M396.26,81.49s5.54,44.44,14.66,54.44c11,12,18.92,10.25,23.34,16.43,4.42-6.18,12.37-4.42,23.33-16.43,9.12-10,14.66-54.44,14.66-54.44-24-11.67-38-24.75-38-24.75S420.29,69.82,396.26,81.49Z" style="fill:#A0B0B0"></path><path d="M472.24,81.49s-5.55,44.43-14.67,54.44c-10.95,12-18.9,10.25-23.32,16.42V56.76C434.67,57.16,448.58,70,472.24,81.49Z" style="fill:#fff;opacity:0.2"></path><circle cx="434.25" cy="104.55" r="17.62" style="fill:#455a64"></circle><polygon points="432.25 116 424.4 107.84 427.31 105.04 431.64 109.54 440.96 95.23 444.35 97.44 432.25 116" style="fill:#fff"></polygon><polygon points="472.24 153.41 469.75 153.88 469.19 156.5 468.63 153.88 466.14 153.41 468.62 152.81 469.19 150.33 469.76 152.81 472.24 153.41" style="fill:#A0B0B0"></polygon><polygon points="398.43 133.44 395.94 133.9 395.38 136.53 394.82 133.9 392.33 133.44 394.81 132.83 395.38 130.35 395.95 132.83 398.43 133.44" style="fill:#A0B0B0"></polygon><polygon points="409.8 64.2 407.31 64.66 406.75 67.28 406.2 64.66 403.7 64.19 406.19 63.59 406.75 61.11 407.32 63.59 409.8 64.2" style="fill:#A0B0B0"></polygon><polygon points="467.78 141.6 466.39 141.86 466.08 143.33 465.77 141.86 464.37 141.6 465.76 141.26 466.08 139.87 466.39 141.26 467.78 141.6" style="fill:#A0B0B0"></polygon><polygon points="477.41 112.37 476.02 112.63 475.71 114.1 475.4 112.63 474 112.37 475.39 112.03 475.71 110.65 476.03 112.03 477.41 112.37" style="fill:#A0B0B0"></polygon><polygon points="465.59 61.11 464.2 61.37 463.89 62.83 463.57 61.37 462.18 61.11 463.57 60.77 463.89 59.38 464.2 60.77 465.59 61.11" style="fill:#A0B0B0"></polygon><polygon points="430.02 167.46 428.63 167.72 428.31 169.18 428 167.72 426.61 167.46 428 167.12 428.31 165.73 428.63 167.12 430.02 167.46" style="fill:#A0B0B0"></polygon><polygon points="390.69 136.86 389.3 137.12 388.98 138.59 388.67 137.12 387.28 136.86 388.67 136.52 388.98 135.13 389.3 136.52 390.69 136.86" style="fill:#A0B0B0"></polygon><polygon points="392.86 96.16 391.46 96.42 391.15 97.89 390.84 96.42 389.45 96.16 390.83 95.82 391.15 94.43 391.47 95.82 392.86 96.16" style="fill:#A0B0B0"></polygon><path d="M451.28,148.19a.41.41,0,0,0,0,.81A.41.41,0,0,0,451.28,148.19Z" style="fill:#A0B0B0"></path><path d="M387.08,75a.41.41,0,0,0,0,.81A.41.41,0,0,0,387.08,75Z" style="fill:#A0B0B0"></path><path d="M463.89,150.46a.41.41,0,0,0,0,.81A.41.41,0,0,0,463.89,150.46Z" style="fill:#A0B0B0"></path><path d="M423,87.41a.4.4,0,0,0,0,.8A.4.4,0,0,0,423,87.41Z" style="fill:#A0B0B0"></path><path d="M385.62,103.67a.41.41,0,0,0,0,.81A.41.41,0,0,0,385.62,103.67Z" style="fill:#A0B0B0"></path><path d="M376.21,99.27a.29.29,0,0,0,0,.57A.29.29,0,0,0,376.21,99.27Z" style="fill:#A0B0B0"></path><path d="M453.24,55.84a.29.29,0,0,0,0,.57A.29.29,0,0,0,453.24,55.84Z" style="fill:#A0B0B0"></path><path d="M413.38,153.61a.29.29,0,0,0,0,.57A.29.29,0,0,0,413.38,153.61Z" style="fill:#A0B0B0"></path><path d="M404.45,148.36a.78.78,0,0,0,0,1.55A.78.78,0,0,0,404.45,148.36Z" style="fill:#A0B0B0"></path></g></svg>